<svg width="24" height="25" viewBox="0 0 24 25" fill="none" xmlns="http://www.w3.org/2000/svg">
<path d="M22.675 0.244873H1.325C0.593 0.244873 0 0.840899 0 1.57663V23.0366C0 23.7713 0.593 24.3673 1.325 24.3673H12.82V15.0259H9.692V11.3854H12.82V8.7008C12.82 5.58498 14.713 3.88837 17.479 3.88837C18.804 3.88837 19.942 3.98787 20.274 4.0321V7.28863L18.356 7.28963C16.852 7.28963 16.561 8.00828 16.561 9.06163V11.3864H20.148L19.681 15.0269H16.561V24.3673H22.677C23.407 24.3673 24 23.7713 24 23.0356V1.57663C24 0.840899 23.407 0.244873 22.675 0.244873Z" fill="white"/>
</svg>
