<svg width="24" height="25" viewBox="0 0 24 25" fill="none" xmlns="http://www.w3.org/2000/svg">
<path d="M12 0.244873C5.373 0.244873 0 5.64428 0 12.3061C0 17.416 3.163 21.7802 7.627 23.5371C7.522 22.5833 7.427 21.1198 7.669 20.0786C7.887 19.1368 9.076 14.0831 9.076 14.0831C9.076 14.0831 8.717 13.3604 8.717 12.292C8.717 10.6155 9.684 9.36316 10.888 9.36316C11.911 9.36316 12.406 10.1361 12.406 11.0618C12.406 12.096 11.751 13.6429 11.412 15.0772C11.129 16.2773 12.011 17.2572 13.189 17.2572C15.322 17.2572 16.961 14.9968 16.961 11.7342C16.961 8.84654 14.897 6.82729 11.949 6.82729C8.535 6.82729 6.531 9.40135 6.531 12.0609C6.531 13.0971 6.928 14.2098 7.424 14.8128C7.522 14.9324 7.536 15.038 7.507 15.1596L7.174 16.5265C7.121 16.7476 7 16.7949 6.772 16.6883C5.273 15.9868 4.336 13.7846 4.336 12.0156C4.336 8.21131 7.086 4.71657 12.265 4.71657C16.428 4.71657 19.663 7.69871 19.663 11.6829C19.663 15.84 17.056 19.185 13.436 19.185C12.22 19.185 11.077 18.5508 10.686 17.8L9.938 20.6675C9.667 21.7159 8.936 23.0295 8.446 23.8296C9.57 24.1784 10.763 24.3673 12 24.3673C18.627 24.3673 24 18.9669 24 12.3061C24 5.64428 18.627 0.244873 12 0.244873Z" fill="white"/>
</svg>
